{
  "title": "Bombay Velvet (2015) v2 Pre DvD Rip - XviD - [1-3] - Team IcTv E",
  "uid": 11929208,
  "size": 1571054500,
  "categoryP": "video",
  "categoryS": "other",
  "magnet": "?xt=urn:btih:6f205c0eabf6ea048fe9aeaa5c9a74aa8cb8f533&amp;dn=Bombay+Velvet+%282015%29+v2+Pre+DvD+Rip+-+XviD+-+%5B1-3%5D+-+Team+IcTv+E&amp;tr=udp%3A%2F%2Ftracker.openbittorrent.com%3A80&amp;tr=udp%3A%2F%2Fopen.demonii.com%3A1337&amp;tr=udp%3A%2F%2Ftracker.coppersurfer.tk%3A6969&amp;tr=udp%3A%2F%2Fexodus.desync.com%3A6969",
  "seeders": 38,
  "leechers": 4,
  "uploader": "SS132203",
  "files": 1,
  "time": 1431761089,
  "description": "Bombay Velvet (2015) v2 Pre DvD Rip - XviD - [1-3] - Team IcTv Exclusive torrent\n &lt;a href=&quot;\nhttp://imgsparrow.co/image/47&quot; rel=&quot;nofollow&quot; target=&quot;_NEW&quot;&gt;\nhttp://imgsparrow.co/image/47&lt;/a&gt;\n &lt;a href=&quot;\nhttp://imgsparrow.co/image/4H&quot; rel=&quot;nofollow&quot; target=&quot;_NEW&quot;&gt;\nhttp://imgsparrow.co/image/4H&lt;/a&gt;\n &lt;a href=&quot;\nhttp://imgsparrow.co/image/9b&quot; rel=&quot;nofollow&quot; target=&quot;_NEW&quot;&gt;\nhttp://imgsparrow.co/image/9b&lt;/a&gt;\n\nAll Credit Goes To Intellect Clever &amp; IcTv\n\nMovie Info\nBanner : Fox\nYear : 2015\nCast : Karan Johar - Anushka Sharma -\nVideo: XviD\nAudio : MP3\nGenre : Action/Romance\nSubtitles :Nope\nResolution : 640 x 272\nRuntime : 2hr 23min\nSource : Team IcTv\n\nFormat                      : AVI\nFormat/Info                 : Audio Video Interleave\nFile size                   : 692 MiB\nDuration                    : 2h 23mn\nOverall bit rate            : 676 Kbps\n\nVideo\nID                          : 0\nFormat                      : MPEG-4 Visual\nFormat profile              : Advanced Simple@L5\nFormat settings, BVOP       : 2\nFormat settings, QPel       : No\nFormat settings, GMC        : No warppoints\nFormat settings, Matrix     : Default (H.263)\nCodec ID                    : XVID\nCodec ID/Hint               : XviD\nDuration                    : 2h 23mn\nBit rate                    : 542 Kbps\nWidth                       : 640 pixels\nHeight                      : 272 pixels\nDisplay aspect ratio        : 2.35:1\nFrame rate                  : 25.000 fps\nColor space                 : YUV\nChroma subsampling          : 4:2:0\nBit depth                   : 8 bits\nScan type                   : Progressive\nCompression mode            : Lossy\nBits/(Pixel*Frame)          : 0.125\nStream size                 : 555 MiB (80%)\nWriting library             : XviD 1.2.1 (UTC 2008-12-04)\n\nAudio\nID                          : 1\nFormat                      : MPEG Audio\nFormat version              : Version 1\nFormat profile              : Layer 3\nMode                        : Joint stereo\nMode extension              : MS Stereo\nCodec ID                    : 55\nCodec ID/Hint               : MP3\nDuration                    : 2h 23mn\nBit rate mode               : Constant\nBit rate                    : 128 Kbps\nChannel(s)                  : 2 channels\nSampling rate               : 48.0 KHz\nCompression mode            : Lossy\nStream size                 : 131 MiB (19%)\n\nScreens : - \n &lt;a href=&quot;\nhttp://imgsparrow.co/image/4k&quot; rel=&quot;nofollow&quot; target=&quot;_NEW&quot;&gt;\nhttp://imgsparrow.co/image/4k&lt;/a&gt; &lt;a href=&quot;\nhttp://imgsparrow.co/image/4n&quot; rel=&quot;nofollow&quot; target=&quot;_NEW&quot;&gt;\nhttp://imgsparrow.co/image/4n&lt;/a&gt; &lt;a href=&quot;\nhttp://imgsparrow.co/image/4y&quot; rel=&quot;nofollow&quot; target=&quot;_NEW&quot;&gt;\nhttp://imgsparrow.co/image/4y&lt;/a&gt; &lt;a href=&quot;\nhttp://imgsparrow.co/image/45&quot; rel=&quot;nofollow&quot; target=&quot;_NEW&quot;&gt;\nhttp://imgsparrow.co/image/45&lt;/a&gt; &lt;a href=&quot;\nhttp://imgsparrow.co/image/4A&quot; rel=&quot;nofollow&quot; target=&quot;_NEW&quot;&gt;\nhttp://imgsparrow.co/image/4A&lt;/a&gt; &lt;a href=&quot;\nhttp://imgsparrow.co/image/4Q&quot; rel=&quot;nofollow&quot; target=&quot;_NEW&quot;&gt;\nhttp://imgsparrow.co/image/4Q&lt;/a&gt; &lt;a href=&quot;\nhttp://imgsparrow.co/image/4Z&quot; rel=&quot;nofollow&quot; target=&quot;_NEW&quot;&gt;\nhttp://imgsparrow.co/image/4Z&lt;/a&gt; &lt;a href=&quot;\nhttp://imgsparrow.co/image/4a&quot; rel=&quot;nofollow&quot; target=&quot;_NEW&quot;&gt;\nhttp://imgsparrow.co/image/4a&lt;/a&gt; &lt;a href=&quot;\nhttp://imgsparrow.co/image/4f&quot; rel=&quot;nofollow&quot; target=&quot;_NEW&quot;&gt;\nhttp://imgsparrow.co/image/4f&lt;/a&gt; &lt;a href=&quot;\nhttp://imgsparrow.co/image/4I&quot; rel=&quot;nofollow&quot; target=&quot;_NEW&quot;&gt;\nhttp://imgsparrow.co/image/4I&lt;/a&gt;\n &lt;a href=&quot;\nhttp://imgsparrow.co/image/N2&quot; rel=&quot;nofollow&quot; target=&quot;_NEW&quot;&gt;\nhttp://imgsparrow.co/image/N2&lt;/a&gt;",
  "parsed": {
    "xt": "urn:btih:6f205c0eabf6ea048fe9aeaa5c9a74aa8cb8f533",
    "dn": "Bombay Velvet (2015) v2 Pre DvD Rip - XviD - [1-3] - Team IcTv E",
    "tr": [
      "udp://exodus.desync.com:6969",
      "udp://open.demonii.com:1337",
      "udp://tracker.coppersurfer.tk:6969",
      "udp://tracker.openbittorrent.com:80"
    ],
    "infoHash": "6f205c0eabf6ea048fe9aeaa5c9a74aa8cb8f533",
    "infoHashBuffer": {
      "type": "Buffer",
      "data": [
        111,
        32,
        92,
        14,
        171,
        246,
        234,
        4,
        143,
        233,
        174,
        170,
        92,
        154,
        116,
        170,
        140,
        184,
        245,
        51
      ]
    },
    "name": "Bombay Velvet (2015) v2 Pre DvD Rip - XviD - [1-3] - Team IcTv E",
    "announce": [
      "udp://exodus.desync.com:6969",
      "udp://open.demonii.com:1337",
      "udp://tracker.coppersurfer.tk:6969",
      "udp://tracker.openbittorrent.com:80"
    ],
    "urlList": []
  },
  "previous": 42,
  "peers": 1,
  "last_updated": "2016-12-25T04:15:11.019Z"
}